<svg version="1.1" id="Layer_1" xmlns="http://www.w3.org/2000/svg" xmlns:xlink="http://www.w3.org/1999/xlink" x="0px" y="0px"
	 width="100%" viewBox="0 0 200 200" enable-background="new 0 0 200 200" xml:space="preserve">
<path fill="#FFFFFF" opacity="1.000000" stroke="none" 
	d="
M115.000000,201.000000 
	C76.690323,201.000000 38.880650,201.000000 1.035486,201.000000 
	C1.035486,134.398697 1.035486,67.797363 1.035486,1.098018 
	C67.559509,1.098018 134.119202,1.098018 200.839447,1.098018 
	C200.839447,67.666359 200.839447,134.333145 200.839447,201.000000 
	C172.464310,201.000000 143.982162,201.000000 115.000000,201.000000 
M118.957115,92.467583 
	C119.530724,89.643143 120.104332,86.818703 120.677940,83.994270 
	C120.141289,83.785355 119.604637,83.576439 119.067986,83.367523 
	C118.385612,84.685783 117.671692,85.988884 117.029243,87.326324 
	C116.306526,88.830864 115.648285,90.366379 114.961990,91.888420 
	C114.533722,91.762695 114.105453,91.636963 113.677177,91.511230 
	C113.961494,89.016212 114.245804,86.521187 114.530113,84.026161 
	C113.964867,83.836632 113.399612,83.647102 112.834358,83.457573 
	C112.107498,85.675125 111.124435,87.847084 110.719528,90.121948 
	C110.228798,92.878929 111.154968,94.778503 114.545586,94.020470 
	C115.927788,93.711449 117.328743,93.486267 118.957115,92.467583 
M95.309601,86.020660 
	C95.251854,88.341919 94.398842,91.132416 95.399872,92.828957 
	C96.137932,94.079811 99.296722,93.902336 100.789223,94.231628 
	C101.635513,91.612206 102.238335,89.991875 102.667862,88.326836 
	C102.935028,87.291206 103.420258,85.823685 102.948463,85.201500 
	C102.263344,84.298019 100.755554,83.454521 99.684509,83.549919 
	C98.337997,83.669846 97.078209,84.763405 95.309601,86.020660 
M81.069000,91.799698 
	C80.039917,91.667244 79.010826,91.534790 77.981743,91.402336 
	C78.529625,90.310677 79.049171,90.260445 79.386520,89.986137 
	C80.897911,88.757225 82.357414,87.464508 83.835640,86.194824 
	C82.983139,85.330093 81.899025,83.601425 81.319969,83.756660 
	C79.283546,84.302597 76.983475,85.098099 75.638191,86.576614 
	C74.662422,87.649017 74.405312,90.220222 75.001671,91.624611 
	C75.527512,92.862938 77.602180,93.735291 79.151237,94.103775 
	C79.770432,94.251068 80.813850,92.615036 81.069000,91.799698 
M85.874878,87.830765 
	C86.891365,88.991318 87.907860,90.151878 89.197800,91.624626 
	C87.241486,91.900612 85.812263,92.102234 84.383049,92.303856 
	C84.477470,92.961266 84.571892,93.618668 84.666313,94.276077 
	C86.878922,93.768753 89.837090,93.917053 91.053520,92.533737 
	C91.928429,91.538773 90.479546,88.500397 90.027115,86.166466 
	C90.365364,86.020271 91.535027,85.514725 93.576630,84.632309 
	C89.392998,83.203537 86.418510,82.227226 85.874878,87.830765 
M108.406410,88.069679 
	C108.948364,85.395393 109.490311,82.721115 110.105072,79.687523 
	C106.498398,81.041008 104.613014,87.022438 105.032883,93.811195 
	C105.479187,93.985062 105.925499,94.158936 106.371803,94.332802 
	C106.980820,92.510490 107.589844,90.688179 108.406410,88.069679 
z"/>
<path fill="#6B63A8" opacity="1.000000" stroke="none" 
	d="
M118.839142,92.845261 
	C117.328743,93.486267 115.927788,93.711449 114.545586,94.020470 
	C111.154968,94.778503 110.228798,92.878929 110.719528,90.121948 
	C111.124435,87.847084 112.107498,85.675125 112.834358,83.457573 
	C113.399612,83.647102 113.964867,83.836632 114.530113,84.026161 
	C114.245804,86.521187 113.961494,89.016212 113.677177,91.511230 
	C114.105453,91.636963 114.533722,91.762695 114.961990,91.888420 
	C115.648285,90.366379 116.306526,88.830864 117.029243,87.326324 
	C117.671692,85.988884 118.385612,84.685783 119.067986,83.367523 
	C119.604637,83.576439 120.141289,83.785355 120.677940,83.994270 
	C120.104332,86.818703 119.530724,89.643143 118.839142,92.845261 
z"/>
<path fill="#6B63A8" opacity="1.000000" stroke="none" 
	d="
M95.545303,85.728745 
	C97.078209,84.763405 98.337997,83.669846 99.684509,83.549919 
	C100.755554,83.454521 102.263344,84.298019 102.948463,85.201500 
	C103.420258,85.823685 102.935028,87.291206 102.667862,88.326836 
	C102.238335,89.991875 101.635513,91.612206 100.789223,94.231628 
	C99.296722,93.902336 96.137932,94.079811 95.399872,92.828957 
	C94.398842,91.132416 95.251854,88.341919 95.545303,85.728745 
M100.573357,90.430206 
	C99.503067,90.372322 98.432770,90.314438 97.362480,90.256554 
	C97.399300,90.721298 97.436119,91.186050 97.472939,91.650795 
	C98.509804,91.538406 99.546669,91.426010 100.573357,90.430206 
z"/>
<path fill="#6B63A8" opacity="1.000000" stroke="none" 
	d="
M81.366577,91.795235 
	C80.813850,92.615036 79.770432,94.251068 79.151237,94.103775 
	C77.602180,93.735291 75.527512,92.862938 75.001671,91.624611 
	C74.405312,90.220222 74.662422,87.649017 75.638191,86.576614 
	C76.983475,85.098099 79.283546,84.302597 81.319969,83.756660 
	C81.899025,83.601425 82.983139,85.330093 83.835640,86.194824 
	C82.357414,87.464508 80.897911,88.757225 79.386520,89.986137 
	C79.049171,90.260445 78.529625,90.310677 77.981743,91.402336 
	C79.010826,91.534790 80.039917,91.667244 81.366577,91.795235 
z"/>
<path fill="#6B63A8" opacity="1.000000" stroke="none" 
	d="
M85.790085,87.504059 
	C86.418510,82.227226 89.392998,83.203537 93.576630,84.632309 
	C91.535027,85.514725 90.365364,86.020271 90.027115,86.166466 
	C90.479546,88.500397 91.928429,91.538773 91.053520,92.533737 
	C89.837090,93.917053 86.878922,93.768753 84.666313,94.276077 
	C84.571892,93.618668 84.477470,92.961266 84.383049,92.303856 
	C85.812263,92.102234 87.241486,91.900612 89.197800,91.624626 
	C87.907860,90.151878 86.891365,88.991318 85.790085,87.504059 
z"/>
<path fill="#6B63A8" opacity="1.000000" stroke="none" 
	d="
M108.302635,88.467773 
	C107.589844,90.688179 106.980820,92.510490 106.371803,94.332802 
	C105.925499,94.158936 105.479187,93.985062 105.032883,93.811195 
	C104.613014,87.022438 106.498398,81.041008 110.105072,79.687523 
	C109.490311,82.721115 108.948364,85.395393 108.302635,88.467773 
z"/>
<path fill="#FFFFFF" opacity="1.000000" stroke="none" 
	d="
M100.578445,90.871910 
	C99.546669,91.426010 98.509804,91.538406 97.472939,91.650795 
	C97.436119,91.186050 97.399300,90.721298 97.362480,90.256554 
	C98.432770,90.314438 99.503067,90.372322 100.578445,90.871910 
z"/>
</svg>