<svg width="90" height="28" viewBox="0 0 253.301 75.201" xmlns="http://www.w3.org/2000/svg"><g id="svgGroup" stroke-linecap="round" fill-rule="evenodd" font-size="9pt" stroke="#00000000" stroke-width="0.25mm" fill="#128ee6" style="stroke:#00000000;stroke-width:0.25mm;fill:#128ee6"><path d="M 181.201 55.1 L 186.901 22 L 195.901 22 L 190.101 54.9 Q 190.032 55.588 189.963 56.157 A 40.23 40.23 0 0 1 189.901 56.65 Q 189.801 57.4 189.801 58.3 Q 189.801 61.566 191.17 63.62 A 6.578 6.578 0 0 0 192.401 65 Q 195.001 67.2 198.501 67.2 Q 202.301 67.2 205.951 64.85 A 19.375 19.375 0 0 0 209.986 61.337 A 25.932 25.932 0 0 0 212.401 58.1 Q 215.201 53.7 216.301 47.5 L 220.801 22 L 229.801 22 L 223.201 59.9 Q 223.101 60.4 223.051 61.05 A 17.363 17.363 0 0 0 223.002 62.215 A 19.322 19.322 0 0 0 223.001 62.4 A 7.658 7.658 0 0 0 223.127 63.84 Q 223.449 65.522 224.601 66.35 A 5.761 5.761 0 0 0 226.517 67.23 Q 227.542 67.5 228.801 67.5 L 225.701 74.5 Q 221.954 74.5 219.435 73.224 A 8.601 8.601 0 0 1 217.451 71.85 A 8.157 8.157 0 0 1 215.325 68.495 Q 214.861 67.167 214.694 65.531 A 19.074 19.074 0 0 1 214.601 63.6 L 214.601 62.7 Q 207.301 75.2 195.501 75.2 Q 191.501 75.2 188.151 73.4 Q 184.801 71.6 182.801 68.35 A 13.291 13.291 0 0 1 181.037 63.546 A 17.678 17.678 0 0 1 180.801 60.6 Q 180.801 59.3 180.901 57.95 A 46.508 46.508 0 0 1 181.086 56.023 A 54.911 54.911 0 0 1 181.201 55.1 Z M 91.801 25.7 L 88.201 33.3 A 34.942 34.942 0 0 0 83.273 30.48 A 40.241 40.241 0 0 0 81.751 29.8 Q 78.201 28.3 73.701 28.3 A 22.325 22.325 0 0 0 70.968 28.456 Q 68.188 28.8 66.401 29.9 A 6.585 6.585 0 0 0 65.03 30.998 A 4.393 4.393 0 0 0 63.801 34.1 Q 63.801 35.6 64.651 36.95 Q 65.459 38.233 67.531 39.652 A 21.678 21.678 0 0 0 67.751 39.8 A 37.727 37.727 0 0 0 69.338 40.796 Q 71.009 41.793 73.325 43 A 129.046 129.046 0 0 0 74.101 43.4 Q 78.617 45.658 81.589 48.026 A 21.949 21.949 0 0 1 84.201 50.45 A 12.688 12.688 0 0 1 87.481 58.582 A 16.428 16.428 0 0 1 87.501 59.4 A 16.507 16.507 0 0 1 87.021 63.48 A 12.32 12.32 0 0 1 84.701 68.2 A 16.238 16.238 0 0 1 79.166 72.601 A 20.306 20.306 0 0 1 77.201 73.45 A 27.468 27.468 0 0 1 71.027 74.933 A 35.442 35.442 0 0 1 66.601 75.2 Q 60.706 75.2 56.166 73.753 A 25.143 25.143 0 0 1 55.851 73.65 Q 51.201 72.1 47.801 69.6 L 52.901 62.2 A 23.108 23.108 0 0 0 56.875 64.786 A 28.626 28.626 0 0 0 59.301 65.9 A 20.657 20.657 0 0 0 65.509 67.328 A 24.55 24.55 0 0 0 67.401 67.4 A 21.387 21.387 0 0 0 70.456 67.195 Q 72.063 66.963 73.378 66.467 A 9.826 9.826 0 0 0 75.301 65.5 A 8.032 8.032 0 0 0 76.799 64.259 A 4.942 4.942 0 0 0 78.201 60.8 A 6.257 6.257 0 0 0 77.066 57.233 A 8.924 8.924 0 0 0 76.051 56 A 12.79 12.79 0 0 0 74.623 54.768 Q 73.031 53.564 70.454 52.142 A 76.771 76.771 0 0 0 67.701 50.7 Q 64.239 48.969 61.832 47.31 A 25.628 25.628 0 0 1 59.901 45.85 Q 57.253 43.627 56.125 41.092 A 10.055 10.055 0 0 1 56.001 40.8 A 14.579 14.579 0 0 1 55.089 37.361 A 19.408 19.408 0 0 1 54.901 34.6 Q 54.901 30.6 57.301 27.5 A 14.602 14.602 0 0 1 61.043 24.133 A 19.479 19.479 0 0 1 64.001 22.6 A 22.723 22.723 0 0 1 69.486 21.109 A 30.304 30.304 0 0 1 73.901 20.8 Q 79.501 20.8 83.951 22.25 A 44.882 44.882 0 0 1 88.383 23.946 A 34.688 34.688 0 0 1 91.801 25.7 Z M 39.401 63.3 L 40.201 71.3 A 33.903 33.903 0 0 1 37.726 72.329 Q 36.355 72.841 34.752 73.331 A 71.576 71.576 0 0 1 32.601 73.95 A 35.228 35.228 0 0 1 26.786 74.994 A 45.074 45.074 0 0 1 22.401 75.2 A 25.965 25.965 0 0 1 16.007 74.442 A 21.265 21.265 0 0 1 10.751 72.35 Q 5.701 69.5 2.851 64.15 A 23.699 23.699 0 0 1 0.471 57.109 A 32.01 32.01 0 0 1 0.001 51.5 A 34.813 34.813 0 0 1 2.096 39.353 A 32.849 32.849 0 0 1 3.451 36.2 Q 6.901 29.2 13.251 25 A 25.315 25.315 0 0 1 24.736 20.973 A 31.965 31.965 0 0 1 28.101 20.8 A 25.579 25.579 0 0 1 32.525 21.163 Q 35.169 21.627 37.34 22.686 A 15.541 15.541 0 0 1 37.951 23 A 17.909 17.909 0 0 1 41.875 25.841 A 15.245 15.245 0 0 1 44.201 28.7 Q 46.401 32.2 46.401 36.2 A 19.183 19.183 0 0 1 46.004 40.207 Q 45.385 43.106 43.801 45.3 Q 41.201 48.9 37.101 50.85 Q 33.001 52.8 28.251 53.6 A 57.86 57.86 0 0 1 22.21 54.305 A 48.844 48.844 0 0 1 19.201 54.4 Q 16.501 54.4 13.851 54.15 A 108.588 108.588 0 0 1 11.657 53.922 Q 10.659 53.807 9.776 53.683 A 59.872 59.872 0 0 1 9.201 53.6 Q 9.905 59.406 13.008 62.813 A 12.499 12.499 0 0 0 13.901 63.7 A 13.486 13.486 0 0 0 20.902 66.967 A 18.622 18.622 0 0 0 23.901 67.2 A 32.871 32.871 0 0 0 28.487 66.895 A 24.388 24.388 0 0 0 32.801 65.9 Q 35.787 64.905 38.069 63.909 A 39.073 39.073 0 0 0 39.401 63.3 Z M 135.601 63.3 L 136.401 71.3 A 33.903 33.903 0 0 1 133.926 72.329 Q 132.555 72.841 130.952 73.331 A 71.576 71.576 0 0 1 128.801 73.95 A 35.228 35.228 0 0 1 122.986 74.994 A 45.074 45.074 0 0 1 118.601 75.2 A 25.965 25.965 0 0 1 112.207 74.442 A 21.265 21.265 0 0 1 106.951 72.35 Q 101.901 69.5 99.051 64.15 A 23.699 23.699 0 0 1 96.671 57.109 A 32.01 32.01 0 0 1 96.201 51.5 A 34.813 34.813 0 0 1 98.296 39.353 A 32.849 32.849 0 0 1 99.651 36.2 Q 103.101 29.2 109.451 25 A 25.315 25.315 0 0 1 120.936 20.973 A 31.965 31.965 0 0 1 124.301 20.8 A 25.579 25.579 0 0 1 128.725 21.163 Q 131.369 21.627 133.54 22.686 A 15.541 15.541 0 0 1 134.151 23 A 17.909 17.909 0 0 1 138.075 25.841 A 15.245 15.245 0 0 1 140.401 28.7 Q 142.601 32.2 142.601 36.2 A 19.183 19.183 0 0 1 142.204 40.207 Q 141.585 43.106 140.001 45.3 Q 137.401 48.9 133.301 50.85 Q 129.201 52.8 124.451 53.6 A 57.86 57.86 0 0 1 118.41 54.305 A 48.844 48.844 0 0 1 115.401 54.4 Q 112.701 54.4 110.051 54.15 A 108.588 108.588 0 0 1 107.857 53.922 Q 106.859 53.807 105.976 53.683 A 59.872 59.872 0 0 1 105.401 53.6 Q 106.105 59.406 109.208 62.813 A 12.499 12.499 0 0 0 110.101 63.7 A 13.486 13.486 0 0 0 117.102 66.967 A 18.622 18.622 0 0 0 120.101 67.2 A 32.871 32.871 0 0 0 124.687 66.895 A 24.388 24.388 0 0 0 129.001 65.9 Q 131.987 64.905 134.269 63.909 A 39.073 39.073 0 0 0 135.601 63.3 Z M 168.701 0 L 158.901 56 A 49.016 49.016 0 0 0 158.731 57.201 Q 158.652 57.809 158.601 58.35 Q 158.501 59.4 158.501 60.2 A 9.051 9.051 0 0 0 158.754 62.405 A 6.16 6.16 0 0 0 160.551 65.5 A 6.947 6.947 0 0 0 163.909 67.194 A 10.099 10.099 0 0 0 166.001 67.4 Q 167.701 67.4 169.401 67 A 14.996 14.996 0 0 0 171.503 66.346 A 12.761 12.761 0 0 0 172.501 65.9 L 173.401 73.2 Q 171.601 74.1 169.201 74.65 Q 166.801 75.2 164.001 75.2 Q 158.001 75.2 153.751 71.75 Q 149.692 68.455 149.509 61.922 A 22.286 22.286 0 0 1 149.501 61.3 Q 149.501 58.7 149.901 56.2 L 159.701 0 L 168.701 0 Z M 27.401 28.4 A 16.106 16.106 0 0 0 20.732 29.778 A 15.677 15.677 0 0 0 18.901 30.75 Q 15.101 33.1 12.651 37.15 A 24.072 24.072 0 0 0 9.867 44.026 A 28.963 28.963 0 0 0 9.401 46.4 Q 11.701 46.8 14.051 47.05 A 43.727 43.727 0 0 0 16.837 47.252 A 56.357 56.357 0 0 0 19.201 47.3 Q 24.713 47.3 28.719 46.288 A 20.157 20.157 0 0 0 32.501 44.95 A 8.906 8.906 0 0 0 35.463 42.745 Q 37.401 40.485 37.401 36.9 A 7.756 7.756 0 0 0 34.943 31.176 A 10.356 10.356 0 0 0 34.651 30.9 A 9.377 9.377 0 0 0 30.166 28.669 A 13.507 13.507 0 0 0 27.401 28.4 Z M 123.601 28.4 A 16.106 16.106 0 0 0 116.932 29.778 A 15.677 15.677 0 0 0 115.101 30.75 Q 111.301 33.1 108.851 37.15 A 24.072 24.072 0 0 0 106.067 44.026 A 28.963 28.963 0 0 0 105.601 46.4 Q 107.901 46.8 110.251 47.05 A 43.727 43.727 0 0 0 113.037 47.252 A 56.357 56.357 0 0 0 115.401 47.3 Q 120.913 47.3 124.919 46.288 A 20.157 20.157 0 0 0 128.701 44.95 A 8.906 8.906 0 0 0 131.663 42.745 Q 133.601 40.485 133.601 36.9 A 7.756 7.756 0 0 0 131.143 31.176 A 10.356 10.356 0 0 0 130.851 30.9 A 9.377 9.377 0 0 0 126.366 28.669 A 13.507 13.507 0 0 0 123.601 28.4 Z M 245.901 75.2 Q 243.101 75.2 241.401 73.45 A 6.358 6.358 0 0 1 240.254 71.863 A 5.222 5.222 0 0 1 239.701 69.5 A 9.514 9.514 0 0 1 239.973 67.157 A 6.424 6.424 0 0 1 242.001 63.8 A 8.376 8.376 0 0 1 244.344 62.333 A 7.258 7.258 0 0 1 247.101 61.8 A 7.959 7.959 0 0 1 249.005 62.015 A 5.399 5.399 0 0 1 251.651 63.5 Q 253.301 65.2 253.301 67.5 A 9.727 9.727 0 0 1 253.038 69.831 A 6.453 6.453 0 0 1 251.051 73.2 Q 248.801 75.2 245.901 75.2 Z" vector-effect="non-scaling-stroke"/></g></svg>